<?xml version="1.0" standalone="no"?>
<!DOCTYPE svg PUBLIC "-//W3C//DTD SVG 20010904//EN"
 "http://www.w3.org/TR/2001/REC-SVG-20010904/DTD/svg10.dtd">
<svg version="1.0" xmlns="http://www.w3.org/2000/svg"
 width="104.000000pt" height="150.000000pt" viewBox="0 0 104.000000 150.000000"
 preserveAspectRatio="xMidYMid meet">

<g transform="translate(0.000000,150.000000) scale(0.100000,-0.100000)"
fill="#000000" stroke="none">
<path d="M255 1487 c-67 -23 -101 -44 -146 -95 -59 -66 -83 -134 -77 -220 6
-84 34 -148 87 -201 69 -69 112 -86 221 -86 86 0 100 3 148 29 99 55 152 139
160 252 5 86 -13 147 -63 216 -65 89 -224 140 -330 105z m200 -65 c57 -28 94
-68 123 -131 21 -45 24 -64 20 -120 -6 -78 -24 -118 -79 -171 -97 -94 -261
-92 -358 2 -137 134 -87 366 92 432 55 20 150 15 202 -12z"/>
<path d="M315 1385 c-5 -2 -22 -6 -37 -9 -39 -9 -98 -64 -119 -111 -26 -56
-23 -102 7 -164 69 -137 251 -150 339 -23 26 38 30 52 30 111 0 58 -4 74 -28
108 -15 22 -44 49 -65 60 -36 20 -106 36 -127 28z m105 -50 c41 -21 78 -74 86
-122 19 -124 -107 -224 -224 -178 -127 51 -144 225 -29 295 39 24 125 27 167
5z"/>
<path d="M310 1247 c-38 -19 -48 -61 -23 -95 26 -36 68 -41 99 -11 31 29 31
63 -1 94 -27 28 -39 30 -75 12z m59 -45 c12 -22 -3 -42 -31 -42 -21 0 -33 22
-24 45 8 21 43 19 55 -3z"/>
<path d="M700 1111 c0 -13 21 -46 51 -79 100 -112 175 -309 205 -536 9 -66 22
-145 31 -175 8 -29 15 -74 16 -99 0 -37 -5 -49 -27 -69 -15 -12 -37 -23 -49
-23 -12 0 -81 -13 -152 -29 -222 -50 -341 -64 -515 -58 -110 3 -168 9 -199 21
-30 11 -48 13 -55 6 -46 -46 233 -84 449 -61 96 11 249 38 463 84 110 24 140
81 108 207 -9 36 -23 114 -31 176 -37 277 -123 491 -249 614 -42 40 -46 42
-46 21z"/>
<path d="M571 876 c-11 -13 -13 -40 -7 -119 3 -56 10 -119 15 -139 10 -43 8
-44 -44 -22 -60 25 -154 20 -225 -12 -45 -20 -63 -24 -73 -16 -40 33 -227 56
-227 28 0 -18 22 -26 73 -26 91 0 186 -48 227 -115 12 -19 26 -35 31 -35 18 0
8 38 -21 79 l-31 42 38 16 c59 26 159 23 221 -6 42 -20 58 -35 81 -77 34 -59
95 -104 114 -85 9 9 7 15 -8 23 -80 44 -120 143 -136 337 -12 151 -11 147 -28
127z"/>
</g>
</svg>
